# Blender v2.92.0 OBJ File: 'grass.blend'
# www.blender.org
mtllib workbench.mtl
o Cube
v 0.500000 1.000000 0.000000
v 0.500000 0.000000 0.000000
v 0.500000 1.000000 1.000000
v 0.500000 0.000000 1.000000
v -0.000000 0.996089 0.000015
v 1.000000 0.996089 0.000015
v 0.000000 1.003911 0.999985
v 1.000000 1.003911 0.999985
v 0.146447 0.000000 0.146447
v 0.853553 0.000000 0.853553
v 0.146447 1.000000 0.146447
v 0.853553 1.000000 0.853553
v 0.000000 0.748911 0.999985
v -0.000000 0.741089 0.000015
v 1.000000 0.741089 0.000015
v 1.000000 0.748911 0.999985
v 0.999827 -0.050000 0.250000
v 0.999827 0.750000 0.250000
v 0.999827 -0.050000 0.000000
v 0.999827 0.750000 0.000000
v 0.749827 -0.050000 0.000000
v 0.749827 -0.050000 0.250000
v 0.749827 0.750000 0.250000
v 0.749827 0.750000 0.000000
v 0.999827 -0.050000 1.000000
v 0.999827 0.750000 1.000000
v 0.999827 -0.050000 0.750000
v 0.999827 0.750000 0.750000
v 0.749827 -0.050000 0.750000
v 0.749827 -0.050000 1.000000
v 0.749827 0.750000 1.000000
v 0.749827 0.750000 0.750000
v 0.255045 -0.050000 1.000000
v 0.255045 0.750000 1.000000
v 0.255045 -0.050000 0.750000
v 0.255045 0.750000 0.750000
v 0.005045 -0.050000 0.750000
v 0.005045 -0.050000 1.000000
v 0.005045 0.750000 1.000000
v 0.005045 0.750000 0.750000
v 0.255045 -0.050000 0.254895
v 0.255045 0.750000 0.254895
v 0.255045 -0.050000 0.004895
v 0.255045 0.750000 0.004895
v 0.005045 -0.050000 0.004895
v 0.005045 -0.050000 0.254895
v 0.005045 0.750000 0.254895
v 0.005045 0.750000 0.004895
v 0.145932 0.994450 0.339756
v 0.148313 1.128649 0.347126
v 0.099460 1.003174 0.195918
v 0.101841 1.137372 0.203288
v 0.457297 0.994450 0.239158
v 0.459678 1.128649 0.246528
v 0.410825 1.003174 0.095320
v 0.413206 1.137372 0.102690
v 0.394440 0.999096 0.694511
v 0.395774 1.074295 0.698640
v 0.264611 1.023466 0.292674
v 0.265945 1.098664 0.296804
v 0.492986 0.999096 0.662672
v 0.494320 1.074295 0.666801
v 0.363157 1.023466 0.260835
v 0.364492 1.098664 0.264965
v 0.529004 0.997274 0.729452
v 0.528827 1.045867 0.729366
v 0.623143 0.996462 0.072690
v 0.622966 1.045055 0.072604
v 0.614311 0.998471 0.741525
v 0.610080 1.047064 0.741439
v 0.708449 0.997660 0.084762
v 0.708272 1.046253 0.084677
v 0.684703 0.997660 0.257969
v 0.680172 1.046253 0.257883
v 0.770637 0.997660 0.273194
v 0.770460 1.046253 0.273108
v 0.698225 0.997660 0.753730
v 0.698047 1.046253 0.753645
v 0.774523 0.997660 0.764635
v 0.774346 1.046253 0.764549
v 0.746666 0.997660 0.409897
v 0.746489 1.046253 0.409812
v 0.825461 0.997660 0.424787
v 0.825284 1.046253 0.424701
v 0.731086 1.046253 0.265495
v 0.740907 1.046253 0.505915
v 0.642653 1.046659 0.492200
v 0.696649 1.046456 0.499058
v 0.722538 1.046253 0.622319
v 0.626585 1.046862 0.609359
v 0.713353 1.046253 0.680521
v 0.618719 1.046963 0.667938
v 0.722538 0.996347 0.622319
v 0.636322 0.996955 0.609359
v 0.713353 0.996023 0.680521
v 0.628288 0.996733 0.667938
vt 0.781250 0.970000
vt 0.811250 0.970000
vt 0.811250 1.000000
vt 0.781250 1.000000
vt 0.780693 1.000022
vt 0.780693 0.969476
vt 0.811238 0.969476
vt 0.811238 1.000022
vt 0.785198 0.998621
vt 0.785198 0.972998
vt 0.791604 0.972998
vt 0.791604 0.998621
vt 0.782778 0.998272
vt 0.782778 0.970999
vt 0.789597 0.970999
vt 0.789597 0.998272
vt 0.783630 0.998823
vt 0.783630 0.971307
vt 0.790509 0.971360
vt 0.790509 0.998877
vt 0.784358 0.997402
vt 0.784358 0.970130
vt 0.791176 0.970076
vt 0.791176 0.997349
vt 0.791765 0.969729
vt 0.801029 0.969729
vt 0.801029 0.999373
vt 0.791765 0.999373
vt 0.803756 0.969097
vt 0.803756 0.999373
vt 0.794295 0.999373
vt 0.794295 0.969097
vt 0.790120 0.995555
vt 0.792847 0.995555
vt 0.792847 0.998282
vt 0.790120 0.998282
vt 0.787392 0.984834
vt 0.798114 0.984834
vt 0.798114 0.995555
vt 0.787392 0.995555
vt 0.788233 0.999413
vt 0.788233 0.969221
vt 0.797668 0.969221
vt 0.797668 0.999413
vt 0.806637 0.970241
vt 0.806637 0.998930
vt 0.797672 0.998930
vt 0.797672 0.970241
vt 0.797145 0.969490
vt 0.806483 0.969490
vt 0.806483 0.999373
vt 0.797145 0.999373
vt 0.809826 0.970087
vt 0.809826 0.998738
vt 0.800872 0.998738
vt 0.800872 0.970087
vt 0.809211 0.993373
vt 0.811938 0.993373
vt 0.811938 0.996101
vt 0.809211 0.996101
vt 0.790120 0.986508
vt 0.799167 0.986508
vt 0.799167 0.995555
vt 0.790120 0.995555
vt 0.801930 0.999420
vt 0.801930 0.969461
vt 0.811292 0.969461
vt 0.811292 0.999420
vt 0.802264 0.969237
vt 0.802264 0.999373
vt 0.792847 0.999373
vt 0.792847 0.969237
vt 0.800167 0.970435
vt 0.809211 0.970435
vt 0.809211 0.999373
vt 0.800167 0.999373
vt 0.798302 0.970339
vt 0.798302 0.999373
vt 0.789228 0.999373
vt 0.789228 0.970339
vt 0.809211 0.990646
vt 0.811938 0.990646
vt 0.811938 0.993373
vt 0.809211 0.993373
vt 0.787392 0.990038
vt 0.795637 0.990038
vt 0.795637 0.998282
vt 0.787392 0.998282
vt 0.789268 0.999105
vt 0.789268 0.969407
vt 0.798549 0.969407
vt 0.798549 0.999105
vt 0.801880 0.999259
vt 0.801880 0.969535
vt 0.811169 0.969535
vt 0.811169 0.999259
vt 0.794894 0.969769
vt 0.803828 0.969769
vt 0.803828 0.998356
vt 0.794894 0.998356
vt 0.807868 0.970230
vt 0.807868 0.999030
vt 0.798868 0.999030
vt 0.798868 0.970230
vt 0.781938 0.995577
vt 0.784665 0.995577
vt 0.784665 0.998304
vt 0.781938 0.998304
vt 0.781938 0.985932
vt 0.791582 0.985932
vt 0.791582 0.995577
vt 0.781938 0.995577
vt 0.797379 0.998569
vt 0.797379 0.969769
vt 0.806379 0.969769
vt 0.806379 0.998569
vt 0.803208 0.998944
vt 0.803208 0.971010
vt 0.811938 0.971010
vt 0.811938 0.998944
vt 0.758007 0.976328
vt 0.757810 0.976894
vt 0.754791 0.978415
vt 0.754324 0.974993
vt 0.375000 0.250000
vt 0.625000 0.250000
vt 0.625000 0.500000
vt 0.375000 0.500000
vt 0.762770 0.974993
vt 0.763237 0.978415
vt 0.759554 0.977081
vt 0.759750 0.976514
vt 0.758574 0.985350
vt 0.758835 0.985586
vt 0.759536 0.989203
vt 0.757959 0.989763
vt 0.375000 0.250000
vt 0.625000 0.250000
vt 0.625000 0.500000
vt 0.375000 0.500000
vt 0.757959 0.979644
vt 0.759536 0.979085
vt 0.758921 0.983497
vt 0.758660 0.983262
vt 0.757972 0.981588
vt 0.757972 0.984185
vt 0.759545 0.989205
vt 0.759545 0.989227
vt 0.775150 0.987795
vt 0.773718 0.987795
vt 0.773718 0.976123
vt 0.775150 0.976123
vt 0.773675 0.973057
vt 0.774950 0.973057
vt 0.774950 0.989815
vt 0.773675 0.989815
vt 0.769537 0.988482
vt 0.775107 0.988482
vt 0.775107 0.990178
vt 0.769537 0.990178
vt 0.773839 0.973386
vt 0.774992 0.973386
vt 0.774992 0.989733
vt 0.773839 0.989733
vt 0.773661 0.976203
vt 0.775268 0.976203
vt 0.775268 0.987791
vt 0.773661 0.987791
vt 0.775338 0.973050
vt 0.774950 0.973057
vt 0.773675 0.973057
vt 0.774950 0.973057
vt 0.774950 0.973057
vt 0.773675 0.973057
vt 0.774950 0.973057
vt 0.774950 0.973057
vt 0.774950 0.973057
vt 0.774950 0.973057
vt 0.773675 0.973057
vt 0.773675 0.985294
vt 0.774950 0.985294
vt 0.769832 0.985933
vt 0.770546 0.985943
vt 0.770546 0.989894
vt 0.769832 0.989884
vt 0.773675 0.973057
vt 0.774950 0.973057
vt 0.773675 0.973057
vt 0.774950 0.973057
vt 0.773732 0.989530
vt 0.773732 0.980465
vt 0.775107 0.980463
vt 0.775107 0.989528
vt 0.775030 0.989776
vt 0.773850 0.989750
vt 0.773863 0.980289
vt 0.775030 0.980162
vt 0.773678 0.976020
vt 0.774339 0.976017
vt 0.774302 0.983008
vt 0.773678 0.983001
vt 0.775000 0.976015
vt 0.774927 0.983016
vt 0.773678 0.988236
vt 0.774872 0.988267
vt 0.774853 0.990017
vt 0.773678 0.989982
vt 0.773678 0.986491
vt 0.774890 0.986516
vt 0.774890 0.986516
vt 0.773678 0.986491
vt 0.773678 0.988236
vt 0.774872 0.988267
vt 0.771389 0.990013
vt 0.769682 0.990013
vt 0.769682 0.988567
vt 0.771389 0.988558
vt 0.774890 0.985917
vt 0.773678 0.985896
vn 0.0000 1.0000 -0.0078
vn 0.0000 -1.0000 0.0078
vn 0.0000 0.0000 1.0000
vn 0.0000 -0.0000 -1.0000
vn 1.0000 0.0000 0.0000
vn -1.0000 0.0000 0.0000
vn 0.0000 1.0000 0.0000
vn 0.0000 -1.0000 0.0000
vn -0.9516 -0.0000 0.3074
vn -0.3069 0.0576 -0.9500
vn 0.9516 0.0000 -0.3074
vn 0.3069 -0.0576 0.9500
vn -0.0177 -0.9983 -0.0548
vn 0.0177 0.9983 0.0548
vn -0.9899 -0.0039 -0.1419
vn 0.9885 0.0451 0.1447
vn -0.1434 -0.0048 0.9897
vn 0.0136 -0.9999 0.0032
vn -0.0139 0.9999 -0.0033
vn 0.1401 -0.0012 -0.9901
vn 0.9878 0.0481 0.1478
vn 0.1703 -0.0036 -0.9854
vn 0.9867 -0.0662 0.1487
vn -0.1407 -0.0046 0.9900
vn -0.1415 0.0012 0.9899
vn -0.9850 -0.0039 -0.1727
vn -0.1857 0.0011 0.9826
vn 0.9889 0.0039 0.1482
vn 0.0024 1.0000 -0.0001
vn 0.0021 1.0000 -0.0010
vn 0.0082 1.0000 0.0007
vn -0.1409 -0.0138 0.9899
vn 0.1388 0.0132 -0.9902
vn -0.9878 0.0000 -0.1559
vn 0.0052 1.0000 -0.0000
usemtl Material
s off
f 5/1/1 7/2/1 8/3/1 6/4/1
f 14/5/2 15/6/2 16/7/2 13/8/2
f 8/9/3 7/10/3 13/11/3 16/12/3
f 5/13/4 6/14/4 15/15/4 14/16/4
f 6/17/5 8/18/5 16/19/5 15/20/5
f 7/21/6 5/22/6 14/23/6 13/24/6
f 17/25/5 19/26/5 20/27/5 18/28/5
f 22/29/6 23/30/6 24/31/6 21/32/6
f 18/33/7 20/34/7 24/35/7 23/36/7
f 19/37/8 17/38/8 22/39/8 21/40/8
f 20/41/4 19/42/4 21/43/4 24/44/4
f 17/45/3 18/46/3 23/47/3 22/48/3
f 25/49/5 27/50/5 28/51/5 26/52/5
f 30/53/6 31/54/6 32/55/6 29/56/6
f 26/57/7 28/58/7 32/59/7 31/60/7
f 27/61/8 25/62/8 30/63/8 29/64/8
f 28/65/4 27/66/4 29/67/4 32/68/4
f 25/69/3 26/70/3 31/71/3 30/72/3
f 33/73/5 35/74/5 36/75/5 34/76/5
f 38/77/6 39/78/6 40/79/6 37/80/6
f 34/81/7 36/82/7 40/83/7 39/84/7
f 35/85/8 33/86/8 38/87/8 37/88/8
f 36/89/4 35/90/4 37/91/4 40/92/4
f 33/93/3 34/94/3 39/95/3 38/96/3
f 41/97/5 43/98/5 44/99/5 42/100/5
f 46/101/6 47/102/6 48/103/6 45/104/6
f 42/105/7 44/106/7 48/107/7 47/108/7
f 43/109/8 41/110/8 46/111/8 45/112/8
f 44/113/4 43/114/4 45/115/4 48/116/4
f 41/117/3 42/118/3 47/119/3 46/120/3
f 49/121/9 50/122/9 52/123/9 51/124/9
f 51/125/10 52/126/10 56/127/10 55/128/10
f 55/129/11 56/130/11 54/131/11 53/132/11
f 53/132/12 54/131/12 50/122/12 49/121/12
f 51/124/13 55/129/13 53/132/13 49/121/13
f 56/130/14 52/123/14 50/122/14 54/131/14
f 57/133/9 58/134/9 60/135/9 59/136/9
f 59/137/10 60/138/10 64/139/10 63/140/10
f 63/141/11 64/142/11 62/143/11 61/144/11
f 61/144/12 62/143/12 58/134/12 57/133/12
f 64/142/14 60/135/14 58/134/14 62/143/14
f 59/145/13 63/146/13 61/147/13 57/148/13
f 65/149/15 66/150/15 68/151/15 67/152/15
f 71/153/16 72/154/16 70/155/16 69/156/16
f 69/157/17 70/158/17 66/159/17 65/160/17
f 67/161/18 71/162/18 69/163/18 65/164/18
f 72/165/19 68/166/19 66/167/19 70/168/19
f 67/161/20 68/169/20 72/154/20 71/162/20
f 71/153/21 72/154/21 74/170/21 73/171/21
f 73/171/22 74/170/22 85/172/22 76/173/22 75/174/22
f 75/174/23 76/173/23 86/175/23 89/176/23 91/177/23 78/178/23 77/179/23
f 69/156/24 77/180/24 78/181/24 70/155/24
f 78/182/25 77/183/25 79/184/25 80/185/25
f 76/173/26 75/174/26 81/186/26 82/187/26
f 82/187/27 81/186/27 83/188/27 84/189/27
f 79/190/28 83/191/28 84/192/28 80/193/28
f 78/194/7 80/195/7 84/196/7 82/197/7
f 76/198/29 85/199/29 88/200/29 86/201/29
f 85/199/30 74/202/30 87/203/30 88/200/30
f 91/204/31 92/205/31 70/206/31 78/207/31
f 89/208/32 90/209/32 94/210/32 93/211/32
f 92/205/33 91/204/33 95/212/33 96/213/33
f 91/214/34 89/215/34 93/216/34 95/217/34
f 86/201/35 88/200/35 87/203/35 90/218/35 89/219/35
