# MagicaVoxel @ Ephtracy

# group
o 

# material
mtllib test.mtl
usemtl palette

# normals
vn -1 0 0
vn 1 0 0
vn 0 0 1
vn 0 0 -1
vn 0 -1 0
vn 0 1 0

# texcoords
vt 0.0175781 0.5
vt 0.201172 0.5
vt 0.306641 0.5
vt 0.396484 0.5
vt 0.587891 0.5
vt 0.669922 0.5
vt 0.841797 0.5

# verts
v 0 0 1
v 0 0 0
v 0 0.2 1
v 0 0.2 0
v 0 0.8 1
v 0 0.8 0
v 0 1 1
v 0 1 0
v 0.1 0.2 0.9
v 0.1 0.2 0.5
v 0.1 0.2 0.4
v 0.1 0.2 0.1
v 0.1 0.3 0.9
v 0.1 0.3 0.7
v 0.1 0.3 0.5
v 0.1 0.5 0.7
v 0.1 0.5 0.5
v 0.1 0.5 0.4
v 0.1 0.5 0.1
v 0.1 0.6 0.5
v 0.1 0.6 0.2
v 0.1 0.6 0.1
v 0.1 0.7 0.9
v 0.1 0.7 0.5
v 0.1 0.7 0.2
v 0.1 0.8 0.9
v 0.1 0.8 0.1
v 0.5 0.3 0.7
v 0.5 0.3 0.2
v 0.5 0.4 0.3
v 0.5 0.4 0.2
v 0.5 0.5 0.7
v 0.5 0.5 0.3
v 0.5 0.6 0.5
v 0.5 0.6 0.3
v 0.5 0.7 0.5
v 0.5 0.7 0.3
v 0.6 0.3 0.9
v 0.6 0.3 0.8
v 0.6 0.7 0.9
v 0.6 0.7 0.8
v 0.8 0.7 0.8
v 0.8 0.7 0.4
v 0.8 0.7 0.2
v 0.8 0.8 0.8
v 0.8 0.8 0.2
v 0.2 0.3 0.7
v 0.2 0.3 0.5
v 0.2 0.3 0.4
v 0.2 0.3 0.2
v 0.2 0.4 0.3
v 0.2 0.4 0.2
v 0.2 0.5 0.7
v 0.2 0.5 0.5
v 0.2 0.5 0.4
v 0.2 0.5 0.3
v 0.2 0.6 0.5
v 0.2 0.6 0.3
v 0.2 0.7 0.8
v 0.2 0.7 0.5
v 0.2 0.7 0.3
v 0.2 0.7 0.2
v 0.2 0.8 0.8
v 0.2 0.8 0.2
v 0.5 0.3 0.9
v 0.5 0.3 0.8
v 0.5 0.5 0.9
v 0.5 0.5 0.8
v 0.5 0.6 0.9
v 0.5 0.6 0.8
v 0.5 0.7 0.9
v 0.5 0.7 0.8
v 0.9 0.2 0.9
v 0.9 0.2 0.4
v 0.9 0.2 0.1
v 0.9 0.7 0.9
v 0.9 0.7 0.4
v 0.9 0.7 0.1
v 0.9 0.8 0.9
v 0.9 0.8 0.1
v 1 0 1
v 1 0 0
v 1 0.2 1
v 1 0.2 0
v 1 0.8 1
v 1 0.8 0
v 1 1 1
v 1 1 0
v 0 0 1
v 0 0.2 1
v 0 0.8 1
v 0 1 1
v 1 0 1
v 1 0.2 1
v 1 0.8 1
v 1 1 1
v 0.1 0.2 0.9
v 0.1 0.3 0.9
v 0.1 0.7 0.9
v 0.1 0.8 0.9
v 0.3 0.5 0.9
v 0.3 0.6 0.9
v 0.5 0.3 0.9
v 0.5 0.5 0.9
v 0.5 0.6 0.9
v 0.5 0.7 0.9
v 0.6 0.2 0.9
v 0.6 0.3 0.9
v 0.6 0.7 0.9
v 0.9 0.2 0.9
v 0.9 0.7 0.9
v 0.9 0.8 0.9
v 0.5 0.3 0.8
v 0.5 0.5 0.8
v 0.5 0.6 0.8
v 0.5 0.7 0.8
v 0.6 0.3 0.8
v 0.6 0.7 0.8
v 0.2 0.4 0.3
v 0.2 0.5 0.3
v 0.2 0.6 0.3
v 0.2 0.7 0.3
v 0.5 0.4 0.3
v 0.5 0.5 0.3
v 0.5 0.6 0.3
v 0.5 0.7 0.3
v 0.2 0.3 0.2
v 0.2 0.4 0.2
v 0.2 0.7 0.2
v 0.2 0.8 0.2
v 0.5 0.3 0.2
v 0.5 0.4 0.2
v 0.8 0.7 0.2
v 0.8 0.8 0.2
v 0.2 0.7 0.8
v 0.2 0.8 0.8
v 0.5 0.7 0.8
v 0.6 0.7 0.8
v 0.8 0.7 0.8
v 0.8 0.8 0.8
v 0.2 0.3 0.7
v 0.2 0.5 0.7
v 0.3 0.5 0.7
v 0.5 0.3 0.7
v 0.5 0.5 0.7
v 0.2 0.6 0.5
v 0.2 0.7 0.5
v 0.5 0.6 0.5
v 0.5 0.7 0.5
v 0.1 0.2 0.1
v 0.1 0.5 0.1
v 0.1 0.6 0.1
v 0.1 0.8 0.1
v 0.2 0.3 0.1
v 0.2 0.5 0.1
v 0.2 0.6 0.1
v 0.2 0.7 0.1
v 0.5 0.5 0.1
v 0.5 0.6 0.1
v 0.6 0.2 0.1
v 0.6 0.3 0.1
v 0.9 0.2 0.1
v 0.9 0.7 0.1
v 0.9 0.8 0.1
v 0 0 0
v 0 0.2 0
v 0 0.8 0
v 0 1 0
v 1 0 0
v 1 0.2 0
v 1 0.8 0
v 1 1 0
v 0 0 1
v 1 0 1
v 0 0 0
v 1 0 0
v 0.2 0.4 0.3
v 0.5 0.4 0.3
v 0.2 0.4 0.2
v 0.5 0.4 0.2
v 0.2 0.5 0.7
v 0.3 0.5 0.7
v 0.5 0.5 0.7
v 0.2 0.5 0.5
v 0.3 0.5 0.5
v 0.2 0.5 0.4
v 0.2 0.5 0.3
v 0.5 0.5 0.3
v 0.5 0.7 0.9
v 0.6 0.7 0.9
v 0.5 0.7 0.8
v 0.6 0.7 0.8
v 0 0.8 1
v 1 0.8 1
v 0.1 0.8 0.9
v 0.9 0.8 0.9
v 0.2 0.8 0.8
v 0.8 0.8 0.8
v 0.2 0.8 0.2
v 0.8 0.8 0.2
v 0.1 0.8 0.1
v 0.9 0.8 0.1
v 0 0.8 0
v 1 0.8 0
v 0 0.2 1
v 1 0.2 1
v 0.1 0.2 0.9
v 0.6 0.2 0.9
v 0.9 0.2 0.9
v 0.1 0.2 0.5
v 0.1 0.2 0.4
v 0.9 0.2 0.4
v 0.1 0.2 0.1
v 0.6 0.2 0.1
v 0.9 0.2 0.1
v 0 0.2 0
v 1 0.2 0
v 0.5 0.3 0.9
v 0.6 0.3 0.9
v 0.5 0.3 0.8
v 0.6 0.3 0.8
v 0.2 0.3 0.7
v 0.5 0.3 0.7
v 0.2 0.3 0.5
v 0.2 0.3 0.4
v 0.2 0.3 0.2
v 0.5 0.3 0.2
v 0.2 0.6 0.5
v 0.5 0.6 0.5
v 0.2 0.6 0.3
v 0.5 0.6 0.3
v 0.2 0.7 0.8
v 0.5 0.7 0.8
v 0.6 0.7 0.8
v 0.8 0.7 0.8
v 0.2 0.7 0.5
v 0.5 0.7 0.5
v 0.6 0.7 0.4
v 0.8 0.7 0.4
v 0.2 0.7 0.3
v 0.5 0.7 0.3
v 0.2 0.7 0.2
v 0.8 0.7 0.2
v 0 1 1
v 1 1 1
v 0 1 0
v 1 1 0

# faces
f 3/3/1 2/3/1 1/3/1
f 4/3/1 2/3/1 3/3/1
f 7/3/1 6/3/1 5/3/1
f 8/3/1 6/3/1 7/3/1
f 13/3/1 10/3/1 9/3/1
f 14/3/1 10/3/1 13/3/1
f 15/1/1 11/1/1 10/1/1
f 15/3/1 10/3/1 14/3/1
f 16/5/1 14/5/1 13/5/1
f 16/6/1 15/6/1 14/6/1
f 17/1/1 11/1/1 15/1/1
f 17/6/1 15/6/1 16/6/1
f 18/3/1 12/3/1 11/3/1
f 18/1/1 11/1/1 17/1/1
f 19/3/1 12/3/1 18/3/1
f 20/5/1 17/5/1 16/5/1
f 20/7/1 18/7/1 17/7/1
f 20/7/1 19/7/1 18/7/1
f 21/7/1 19/7/1 20/7/1
f 22/7/1 19/7/1 21/7/1
f 23/5/1 16/5/1 13/5/1
f 23/5/1 20/5/1 16/5/1
f 24/6/1 21/6/1 20/6/1
f 24/5/1 20/5/1 23/5/1
f 25/3/1 22/3/1 21/3/1
f 25/6/1 21/6/1 24/6/1
f 26/3/1 24/3/1 23/3/1
f 26/3/1 25/3/1 24/3/1
f 27/3/1 22/3/1 25/3/1
f 27/3/1 25/3/1 26/3/1
f 30/4/1 29/4/1 28/4/1
f 31/4/1 29/4/1 30/4/1
f 32/4/1 30/4/1 28/4/1
f 33/4/1 30/4/1 32/4/1
f 36/4/1 35/4/1 34/4/1
f 37/4/1 35/4/1 36/4/1
f 40/1/1 39/1/1 38/1/1
f 41/1/1 39/1/1 40/1/1
f 45/3/1 43/3/1 42/3/1
f 45/3/1 44/3/1 43/3/1
f 46/3/1 44/3/1 45/3/1
f 49/3/2 50/3/2 51/3/2
f 51/3/2 50/3/2 52/3/2
f 47/6/2 48/6/2 53/6/2
f 48/1/2 49/1/2 54/1/2
f 53/6/2 48/6/2 54/6/2
f 49/3/2 51/3/2 55/3/2
f 54/1/2 49/1/2 55/1/2
f 55/3/2 51/3/2 56/3/2
f 57/6/2 58/6/2 60/6/2
f 60/6/2 58/6/2 61/6/2
f 60/3/2 61/3/2 63/3/2
f 61/3/2 62/3/2 63/3/2
f 59/3/2 60/3/2 63/3/2
f 63/3/2 62/3/2 64/3/2
f 65/5/2 66/5/2 67/5/2
f 67/5/2 66/5/2 68/5/2
f 67/2/2 68/2/2 69/2/2
f 69/2/2 68/2/2 70/2/2
f 69/5/2 70/5/2 71/5/2
f 71/5/2 70/5/2 72/5/2
f 73/1/2 74/1/2 76/1/2
f 74/4/2 75/4/2 77/4/2
f 76/1/2 74/1/2 77/1/2
f 77/4/2 75/4/2 78/4/2
f 76/3/2 77/3/2 79/3/2
f 77/3/2 78/3/2 79/3/2
f 79/3/2 78/3/2 80/3/2
f 81/3/2 82/3/2 83/3/2
f 83/3/2 82/3/2 84/3/2
f 85/3/2 86/3/2 87/3/2
f 87/3/2 86/3/2 88/3/2
f 93/3/3 90/3/3 89/3/3
f 94/3/3 90/3/3 93/3/3
f 95/3/3 92/3/3 91/3/3
f 96/3/3 92/3/3 95/3/3
f 101/5/3 99/5/3 98/5/3
f 102/5/3 99/5/3 101/5/3
f 103/3/3 98/3/3 97/3/3
f 103/5/3 101/5/3 98/5/3
f 104/2/3 102/2/3 101/2/3
f 104/5/3 101/5/3 103/5/3
f 105/5/3 99/5/3 102/5/3
f 105/2/3 102/2/3 104/2/3
f 106/3/3 100/3/3 99/3/3
f 106/5/3 99/5/3 105/5/3
f 107/3/3 103/3/3 97/3/3
f 108/3/3 103/3/3 107/3/3
f 109/3/3 100/3/3 106/3/3
f 110/1/3 108/1/3 107/1/3
f 110/1/3 109/1/3 108/1/3
f 111/3/3 100/3/3 109/3/3
f 111/1/3 109/1/3 110/1/3
f 112/3/3 100/3/3 111/3/3
f 117/4/3 114/4/3 113/4/3
f 117/4/3 116/4/3 115/4/3
f 117/4/3 115/4/3 114/4/3
f 118/4/3 116/4/3 117/4/3
f 123/4/3 120/4/3 119/4/3
f 124/4/3 120/4/3 123/4/3
f 125/4/3 122/4/3 121/4/3
f 126/4/3 122/4/3 125/4/3
f 131/4/3 128/4/3 127/4/3
f 132/4/3 128/4/3 131/4/3
f 133/3/3 130/3/3 129/3/3
f 134/3/3 130/3/3 133/3/3
f 135/3/4 136/3/4 137/3/4
f 137/3/4 136/3/4 138/3/4
f 138/3/4 136/3/4 139/3/4
f 139/3/4 136/3/4 140/3/4
f 141/5/4 142/5/4 143/5/4
f 141/5/4 143/5/4 144/5/4
f 144/5/4 143/5/4 145/5/4
f 146/5/4 147/5/4 148/5/4
f 148/5/4 147/5/4 149/5/4
f 150/3/4 151/3/4 154/3/4
f 151/7/4 152/7/4 155/7/4
f 154/3/4 151/3/4 155/3/4
f 152/3/4 153/3/4 156/3/4
f 155/7/4 152/7/4 156/7/4
f 156/3/4 153/3/4 157/3/4
f 154/4/4 155/4/4 158/4/4
f 155/7/4 156/7/4 158/7/4
f 156/4/4 157/4/4 159/4/4
f 158/7/4 156/7/4 159/7/4
f 150/3/4 154/3/4 160/3/4
f 154/4/4 158/4/4 161/4/4
f 160/3/4 154/3/4 161/3/4
f 158/4/4 159/4/4 161/4/4
f 160/4/4 161/4/4 162/4/4
f 157/3/4 153/3/4 163/3/4
f 162/4/4 161/4/4 163/4/4
f 159/4/4 157/4/4 163/4/4
f 161/4/4 159/4/4 163/4/4
f 163/3/4 153/3/4 164/3/4
f 165/3/4 166/3/4 169/3/4
f 169/3/4 166/3/4 170/3/4
f 167/3/4 168/3/4 171/3/4
f 171/3/4 168/3/4 172/3/4
f 175/3/5 174/3/5 173/3/5
f 176/3/5 174/3/5 175/3/5
f 179/4/5 178/4/5 177/4/5
f 180/4/5 178/4/5 179/4/5
f 184/5/5 182/5/5 181/5/5
f 185/7/5 183/7/5 182/7/5
f 185/5/5 182/5/5 184/5/5
f 186/7/5 185/7/5 184/7/5
f 187/7/5 185/7/5 186/7/5
f 188/7/5 183/7/5 185/7/5
f 188/7/5 185/7/5 187/7/5
f 191/3/5 190/3/5 189/3/5
f 192/3/5 190/3/5 191/3/5
f 195/3/5 194/3/5 193/3/5
f 196/3/5 194/3/5 195/3/5
f 199/3/5 198/3/5 197/3/5
f 200/3/5 198/3/5 199/3/5
f 201/3/5 195/3/5 193/3/5
f 202/3/5 194/3/5 196/3/5
f 203/3/5 201/3/5 193/3/5
f 203/3/5 202/3/5 201/3/5
f 204/3/5 194/3/5 202/3/5
f 204/3/5 202/3/5 203/3/5
f 205/3/6 206/3/6 207/3/6
f 207/3/6 206/3/6 208/3/6
f 208/3/6 206/3/6 209/3/6
f 205/3/6 207/3/6 210/3/6
f 205/3/6 210/3/6 211/3/6
f 209/3/6 206/3/6 212/3/6
f 205/3/6 211/3/6 213/3/6
f 212/3/6 206/3/6 215/3/6
f 213/3/6 214/3/6 216/3/6
f 214/3/6 215/3/6 216/3/6
f 205/3/6 213/3/6 216/3/6
f 215/3/6 206/3/6 217/3/6
f 216/3/6 215/3/6 217/3/6
f 218/3/6 219/3/6 220/3/6
f 220/3/6 219/3/6 221/3/6
f 222/3/6 223/3/6 224/3/6
f 224/3/6 223/3/6 225/3/6
f 225/3/6 223/3/6 226/3/6
f 226/3/6 223/3/6 227/3/6
f 228/7/6 229/7/6 230/7/6
f 230/7/6 229/7/6 231/7/6
f 232/5/6 233/5/6 236/5/6
f 233/4/6 234/4/6 237/4/6
f 236/5/6 233/5/6 237/5/6
f 234/1/6 235/1/6 238/1/6
f 237/4/6 234/4/6 238/4/6
f 238/1/6 235/1/6 239/1/6
f 237/4/6 238/4/6 241/4/6
f 238/4/6 239/4/6 241/4/6
f 240/4/6 241/4/6 242/4/6
f 241/4/6 239/4/6 243/4/6
f 242/4/6 241/4/6 243/4/6
f 244/3/6 245/3/6 246/3/6
f 246/3/6 245/3/6 247/3/6
