# Blender v2.92.0 OBJ File: 'wood_shaft.blend1'
# www.blender.org
mtllib wood_shaft_real.mtl
o 圆环
v -0.125000 0.125000 -0.500000
v -0.125000 -0.125000 -0.500000
v 0.125000 0.125000 -0.500000
v 0.125000 -0.125000 -0.500000
v -0.125000 0.125000 0.500000
v -0.125000 -0.125000 0.500000
v 0.125000 0.125000 0.500000
v 0.125000 -0.125000 0.500000
vt 0.789866 0.998969
vt 0.782889 0.998969
vt 0.782889 0.971062
vt 0.789866 0.971062
vt 0.791969 0.999609
vt 0.784023 0.999609
vt 0.784023 0.990696
vt 0.791969 0.990696
vt 0.810165 0.989200
vt 0.810165 0.996779
vt 0.779847 0.996779
vt 0.779847 0.989200
vt 0.796810 0.985646
vt 0.796810 0.994267
vt 0.788189 0.994267
vt 0.788189 0.985646
vt 0.800783 0.970166
vt 0.800783 0.998948
vt 0.793588 0.998948
vt 0.793588 0.970166
vt 0.807979 0.970166
vt 0.807979 0.998948
vt 0.800783 0.998948
vt 0.800783 0.970166
vn 1.0000 0.0000 -0.0000
vn 0.0000 0.0000 -1.0000
vn -1.0000 0.0000 0.0000
vn 0.0000 0.0000 1.0000
vn 0.0000 1.0000 0.0000
vn 0.0000 -1.0000 0.0000
usemtl 材质
s off
f 4/1/1 3/2/1 7/3/1 8/4/1
f 2/5/2 1/6/2 3/7/2 4/8/2
f 6/9/3 5/10/3 1/11/3 2/12/3
f 8/13/4 7/14/4 5/15/4 6/16/4
f 1/17/5 5/18/5 7/19/5 3/20/5
f 6/21/6 2/22/6 4/23/6 8/24/6
