# Blender v2.92.0 OBJ File: 'apple1.blend'
# www.blender.org
mtllib apple3.mtl
o Cube
v 0.500000 1.000000 0.000000
v 0.500000 0.000000 0.000000
v 0.500000 1.000000 1.000000
v 0.500000 0.000000 1.000000
v 0.000000 0.999985 0.496089
v 1.000000 0.999985 0.496089
v 0.000000 0.000015 0.503911
v 1.000000 0.000015 0.503911
vt 0.500000 0.968750
vt 0.500000 1.000000
vt 0.468750 1.000000
vt 0.468750 0.968750
vt 0.468750 1.000000
vt 0.500000 1.000000
vt 0.500000 0.968750
vt 0.468750 0.968750
vn 1.0000 0.0000 0.0000
vn 0.0000 -0.0078 -1.0000
usemtl Material
s off
f 2/1/1 1/2/1 3/3/1 4/4/1
f 5/5/2 6/6/2 8/7/2 7/8/2
