# Blender v2.92.0 OBJ File: 'anvil.blend'
# www.blender.org
mtllib copper_anvil_real.mtl
o 立方体
v -0.250000 0.000000 0.200000
v -0.250000 0.400000 0.200000
v -0.250000 0.000000 -0.300000
v -0.250000 0.400000 -0.600000
v 0.250000 0.000000 0.200000
v 0.250000 0.400000 0.200000
v 0.250000 0.000000 -0.300000
v 0.250000 0.400000 -0.600000
v -0.250000 -0.200000 -0.300000
v -0.250000 -0.200000 0.200000
v 0.250000 -0.200000 -0.300000
v 0.250000 -0.200000 0.200000
v -0.005000 0.500000 0.750000
v 0.005000 0.500000 0.750000
v -0.250000 -0.500000 -0.450000
v -0.250000 -0.500000 0.350000
v 0.250000 -0.500000 -0.450000
v 0.250000 -0.500000 0.350000
vt 0.000724 0.921912
vt 0.000724 0.937054
vt 0.031008 0.937054
vt 0.019652 0.921912
vt 0.000598 0.913322
vt 0.000598 0.937252
vt 0.030510 0.937252
vt 0.030510 0.913322
vt 0.019311 0.917567
vt 0.030754 0.932824
vt 0.000239 0.932824
vt 0.000239 0.917567
vt 0.025864 0.929528
vt 0.025864 0.906478
vt -0.000067 0.935290
vt 0.000767 0.935444
vt 0.000767 0.923860
vt 0.029727 0.923860
vt 0.029727 0.935444
vt 0.028707 0.937393
vt 0.009288 0.937393
vt 0.009288 0.906322
vt 0.028707 0.906322
vt 0.028923 0.937189
vt 0.028923 0.927360
vt 0.000444 0.927360
vt 0.000444 0.937189
vt 0.000878 0.936676
vt 0.028513 0.936676
vt 0.028513 0.927264
vt 0.000878 0.927264
vt 0.030554 0.936710
vt 0.030554 0.918299
vt -0.000132 0.918299
vt -0.000132 0.936710
vt 0.000255 0.937195
vt 0.000255 0.920053
vt 0.028826 0.920053
vt 0.028826 0.937195
vt 0.025270 0.934579
vt 0.030962 0.923195
vt 0.000606 0.923195
vt 0.006298 0.934579
vt 0.030539 0.934042
vt 0.001213 0.934042
vt 0.015583 0.907648
vt 0.016170 0.907648
vt 0.025962 0.906369
vt 0.025962 0.929506
vt -0.000067 0.935290
vt 0.000291 0.906235
vt 0.028423 0.906235
vt 0.014638 0.934367
vt 0.014075 0.934367
vt 0.000521 0.936820
vt 0.000521 0.924459
vt 0.030121 0.924459
vt 0.030121 0.936820
vt 0.009288 0.934928
vt 0.021616 0.934928
vt 0.021616 0.910270
vt 0.009288 0.910270
vt 0.024197 0.935082
vt 0.006764 0.935082
vt 0.001535 0.924622
vt 0.029426 0.924622
vn -1.0000 0.0000 0.0000
vn 0.0000 -0.6000 -0.8000
vn 1.0000 -0.0000 0.0000
vn -0.9135 -0.0000 0.4069
vn 0.0000 1.0000 0.0000
vn 0.0000 0.0000 -1.0000
vn 0.0000 0.4472 -0.8944
vn 0.0000 0.4472 0.8944
vn 0.0000 0.9839 -0.1789
vn 0.9135 0.0000 0.4069
vn 0.0000 -0.7399 0.6727
vn 0.0000 -0.0000 1.0000
vn 0.0000 -1.0000 0.0000
usemtl 材质
s off
f 1/1/1 2/2/1 4/3/1 3/4/1
f 3/5/2 4/6/2 8/7/2 7/8/2
f 7/9/3 8/10/3 6/11/3 5/12/3
f 2/13/4 1/14/4 13/15/4
f 5/16/3 12/17/3 11/18/3 7/19/3
f 8/20/5 4/21/5 2/22/5 6/23/5
f 7/24/6 11/25/6 9/26/6 3/27/6
f 1/28/1 3/29/1 9/30/1 10/31/1
f 11/32/7 17/33/7 15/34/7 9/35/7
f 10/36/8 16/37/8 18/38/8 12/39/8
f 9/40/1 15/41/1 16/42/1 10/43/1
f 6/44/9 2/45/9 13/46/9 14/47/9
f 5/48/10 6/49/10 14/50/10
f 1/51/11 5/52/11 14/53/11 13/54/11
f 1/55/12 10/56/12 12/57/12 5/58/12
f 15/59/13 17/60/13 18/61/13 16/62/13
f 11/63/3 12/64/3 18/65/3 17/66/3
