# Blender v2.92.0 OBJ File: 'grass.blend'
# www.blender.org
mtllib banana1.mtl
o Cube
v 0.500000 1.000000 0.000000
v 0.500000 0.000000 0.000000
v 0.500000 1.000000 1.000000
v 0.500000 0.000000 1.000000
v 0.143681 0.999985 0.850788
v 0.850788 0.999985 0.143681
v 0.149212 0.000015 0.856319
v 0.856319 0.000015 0.149212
v 0.146447 0.000000 0.146447
v 0.853553 0.000000 0.853553
v 0.146447 1.000000 0.146447
v 0.853553 1.000000 0.853553
vt 0.531250 1.000000
vt 0.562500 1.000000
vt 0.562500 0.968750
vt 0.531250 0.968750
vt 0.531452 0.968475
vt 0.562298 0.968475
vt 0.562298 1.000275
vt 0.531452 1.000275
vn -0.7071 -0.0078 -0.7071
vn -0.7071 0.0000 0.7071
usemtl Material
s off
f 5/1/1 6/2/1 8/3/1 7/4/1
f 9/5/2 10/6/2 12/7/2 11/8/2
