# Blender v2.82 (sub 7) OBJ File: 'water.blend'
# www.blender.org
mtllib water.mtl
o block
v 0.000000 0.000000 1.000000
v 0.000000 1.000000 1.000000
v 0.000000 0.000000 0.000000
v 0.000000 1.000000 0.000000
v 1.000000 0.000000 1.000000
v 1.000000 1.000000 1.000000
v 1.000000 0.000000 0.000000
v 1.000000 1.000000 0.000000
vt 0.187500 0.968750
vt 0.218750 0.968750
vt 0.218750 1.000000
vt 0.187500 1.000003
vt 0.187500 0.968750
vt 0.218750 0.968750
vt 0.218750 1.000000
vt 0.187500 1.000003
vt 0.187500 0.968750
vt 0.218750 0.968750
vt 0.218750 1.000000
vt 0.187500 1.000003
vt 0.187500 0.968750
vt 0.218750 0.968750
vt 0.218750 1.000000
vt 0.187500 1.000047
vt 0.218750 0.968750
vt 0.218750 1.000000
vt 0.187500 0.968750
vt 0.187500 1.000003
vn -1.0000 0.0000 0.0000
vn 0.0000 0.0000 -1.0000
vn 1.0000 0.0000 0.0000
vn 0.0000 0.0000 1.0000
vn 0.0000 -1.0000 0.0000
vn 0.0000 1.0000 0.0000
usemtl 材质
s off
f 1/1/1 2/2/1 4/3/1 3/4/1
f 3/5/2 4/6/2 8/7/2 7/8/2
f 7/9/3 8/10/3 6/11/3 5/12/3
f 5/13/4 6/14/4 2/15/4 1/16/4
f 3/5/5 7/17/5 5/18/5 1/16/5
f 8/19/6 4/6/6 2/15/6 6/20/6
