# Blender v2.82 (sub 7) OBJ File: 'flax_grow1.blend'
# www.blender.org
mtllib flax_grow1.mtl
o Cube.001_Cube.003
v 0.750000 1.000000 0.000000
v 0.750000 0.000000 0.000000
v 0.750000 1.000000 1.000000
v 0.750000 0.000000 1.000000
v 0.000000 0.999985 0.746089
v 1.000000 0.999985 0.746089
v 0.000000 0.000015 0.753911
v 1.000000 0.000015 0.753911
v 0.250000 1.000000 0.000000
v 0.250000 0.000000 0.000000
v 0.250000 1.000000 1.000000
v 0.250000 0.000000 1.000000
v 0.000000 0.999985 0.246089
v 1.000000 0.999985 0.246089
v 0.000000 0.000015 0.253911
v 1.000000 0.000015 0.253911
vt 0.281250 0.968750
vt 0.281250 1.000000
vt 0.250000 1.000000
vt 0.250000 0.968750
vt 0.281250 1.000000
vt 0.250000 1.000000
vt 0.250000 0.968750
vt 0.281250 0.968750
vt 0.281250 0.968750
vt 0.281250 1.000000
vt 0.250000 1.000000
vt 0.250000 0.968750
vt 0.250000 1.000000
vt 0.281250 1.000000
vt 0.281250 0.968750
vt 0.250000 0.968750
vn 1.0000 0.0000 0.0000
vn 0.0000 -0.0078 -1.0000
usemtl Material.001
s off
f 2/1/1 1/2/1 3/3/1 4/4/1
f 5/5/2 6/6/2 8/7/2 7/8/2
f 10/9/1 9/10/1 11/11/1 12/12/1
f 13/13/2 14/14/2 16/15/2 15/16/2
