# Blender v2.92.0 OBJ File: 'water_wheel_real.blend'
# www.blender.org
mtllib water_wheel_real0.mtl
o Cube
v 0.500000 -0.503895 -0.499294
v 0.500000 -0.499985 -0.249294
v 0.250000 -0.499985 -0.246795
v 0.250000 -0.503895 -0.496795
v 0.250000 0.496955 -0.250705
v 0.500000 0.496955 -0.253205
v 0.250000 0.493045 -0.500705
v 0.500000 0.493045 -0.503205
v 0.500000 -0.503895 0.245129
v 0.500000 -0.499985 0.495129
v 0.250000 -0.499985 0.497629
v 0.250000 -0.503895 0.247629
v 0.250000 0.496955 0.493718
v 0.500000 0.496955 0.491219
v 0.250000 0.493045 0.243718
v 0.500000 0.493045 0.241219
v 0.488256 0.120825 -0.474360
v 0.488256 -0.129175 -0.470450
v 0.252230 -0.131675 -0.470450
v 0.252230 0.118325 -0.474361
v 0.252230 -0.127765 0.480029
v 0.488256 -0.125265 0.480029
v 0.252230 0.122235 0.476118
v 0.488256 0.124735 0.476119
v -0.464722 0.058919 -0.065843
v -0.462759 -0.066568 -0.065843
v -0.462760 -0.067822 0.059644
v -0.464723 0.057665 0.059644
v 0.308940 -0.065859 0.059644
v 0.308940 -0.064605 -0.065843
v 0.306977 0.059628 0.059644
v 0.306977 0.060882 -0.065843
v 0.474704 0.424509 -0.472863
v 0.474704 0.174509 -0.468953
v 0.252230 0.172009 -0.468953
v 0.252230 0.422009 -0.472863
v 0.252229 0.175920 0.477157
v 0.474704 0.178420 0.477157
v 0.252230 0.425920 0.473247
v 0.474704 0.428420 0.473247
v 0.488517 -0.195476 -0.481533
v 0.488517 -0.445476 -0.477622
v 0.252230 -0.447976 -0.477622
v 0.252230 -0.197976 -0.481533
v 0.252229 -0.444065 0.479916
v 0.488516 -0.441565 0.479916
v 0.252230 -0.194065 0.476005
v 0.488517 -0.191565 0.476005
v -0.500243 0.058364 -0.065849
v -0.500243 0.057109 0.059638
v -0.498280 -0.068378 0.059638
v -0.498280 -0.067123 -0.065849
v -0.465393 0.101754 -0.065415
v -0.465393 0.100499 0.060072
v -0.500913 0.101198 -0.065420
v -0.500913 0.099943 0.060067
v -0.462766 -0.067822 0.099650
v -0.464729 0.057664 0.099650
v -0.498287 -0.068378 0.099645
v -0.500250 0.057109 0.099645
v -0.462753 -0.066567 -0.107416
v -0.464716 0.058919 -0.107416
v -0.498274 -0.067123 -0.107421
v -0.500237 0.058364 -0.107421
v -0.462149 -0.106873 0.059253
v -0.462149 -0.105618 -0.066233
v -0.497669 -0.107428 0.059248
v -0.497669 -0.106173 -0.066239
vt 0.812424 1.000000
vt 0.781250 1.000000
vt 0.781250 0.968826
vt 0.812424 0.968826
vt 0.812427 1.000000
vt 0.781250 0.968823
vt 0.812427 0.968823
vt 0.781350 0.968637
vt 0.812612 0.968637
vt 0.812612 0.999900
vt 0.781350 0.999900
vt 0.781388 0.968988
vt 0.812383 0.968988
vt 0.812383 0.999953
vt 0.781388 0.999953
vt 0.812386 1.000000
vt 0.781250 1.000000
vt 0.781250 0.968864
vt 0.812386 0.968864
vt 0.812424 1.000000
vt 0.781250 1.000000
vt 0.781250 0.968826
vt 0.812424 0.968826
vt 0.812427 1.000000
vt 0.781250 0.968823
vt 0.812427 0.968823
vt 0.781350 0.968637
vt 0.812612 0.968637
vt 0.812612 0.999900
vt 0.781350 0.999900
vt 0.781388 0.968988
vt 0.812383 0.968988
vt 0.812383 0.999953
vt 0.781388 0.999953
vt 0.812386 0.968864
vt 0.812424 1.000000
vt 0.781250 1.000000
vt 0.781250 0.968826
vt 0.812424 0.968826
vt 0.812427 1.000000
vt 0.781250 0.968823
vt 0.812427 0.968823
vt 0.781350 0.968637
vt 0.812612 0.968637
vt 0.812612 0.999900
vt 0.781350 0.999900
vt 0.781388 0.968988
vt 0.812383 0.968988
vt 0.812383 0.999953
vt 0.781388 0.999953
vt 0.812386 0.968864
vt 0.812424 1.000000
vt 0.781250 1.000000
vt 0.781250 0.968826
vt 0.812424 0.968826
vt 0.812427 1.000000
vt 0.781250 0.968823
vt 0.812427 0.968823
vt 0.781350 0.968637
vt 0.812612 0.968637
vt 0.812612 0.999900
vt 0.781350 0.999900
vt 0.781388 0.968988
vt 0.812383 0.968988
vt 0.812383 0.999953
vt 0.781388 0.999953
vt 0.812612 0.999900
vt 0.781350 0.999900
vt 0.812424 1.000000
vt 0.781250 1.000000
vt 0.781250 0.968826
vt 0.812424 0.968826
vt 0.812427 1.000000
vt 0.781250 0.968823
vt 0.812427 0.968823
vt 0.781350 0.968637
vt 0.812612 0.968637
vt 0.812612 0.999900
vt 0.781350 0.999900
vt 0.781388 0.968988
vt 0.812383 0.968988
vt 0.812383 0.999953
vt 0.781388 0.999953
vt 0.812386 0.968864
vt 0.812424 1.000000
vt 0.781250 1.000000
vt 0.781250 0.968826
vt 0.812424 0.968826
vt 0.812427 1.000000
vt 0.781250 0.968823
vt 0.812427 0.968823
vt 0.781350 0.968637
vt 0.812612 0.968637
vt 0.812612 0.999900
vt 0.781350 0.999900
vt 0.781388 0.968988
vt 0.812383 0.968988
vt 0.812383 0.999953
vt 0.781388 0.999953
vt 0.812386 0.968864
vt 0.812383 0.999953
vt 0.812386 0.968864
vt 0.781350 0.999900
vt 0.781388 0.999953
vt 0.812383 0.999953
vt 0.781388 0.999953
vt 0.000000 0.000000
vt 0.000000 0.000000
vt 0.000000 0.000000
vt 0.000000 0.000000
vt 0.804562 0.987710
vt 0.809792 0.987710
vt 0.809792 0.994016
vt 0.804562 0.994016
vt 0.812427 0.968823
vt 0.781250 0.968823
vt 0.781250 0.968823
vt 0.812427 0.968823
vt 0.786088 0.987710
vt 0.786088 0.994016
vt 0.780859 0.987710
vt 0.780859 0.994016
vt 0.800820 0.972277
vt 0.800820 0.993253
vt 0.794883 0.993253
vt 0.794883 0.972277
vt 0.804563 0.987710
vt 0.786088 0.981820
vt 0.804563 0.981820
vt 0.780859 0.981820
vt 0.781350 0.999900
vt 0.781350 0.999900
vt 0.812383 0.999953
vt 0.781388 0.999953
vt 0.804562 0.981590
vt 0.809792 0.981590
vt 0.786087 0.987710
vt 0.780857 0.987710
vt 0.780857 0.981590
vt 0.786087 0.981590
vt 0.812612 0.999900
vt 0.781350 0.999900
vt 0.804561 0.993459
vt 0.786087 0.993459
vt 0.780857 0.993459
vn 0.0002 -0.9999 0.0156
vn 0.0100 0.0039 0.9999
vn -0.0100 -0.0039 -0.9999
vn -1.0000 -0.0000 -0.0000
vn 1.0000 0.0000 0.0000
vn -0.0002 0.9999 -0.0156
vn 0.0002 -0.0156 -0.9999
vn 0.0106 -0.9999 0.0041
vn -0.0106 0.9999 -0.0041
vn -0.0002 0.0156 0.9999
vn -0.9999 -0.0156 -0.0002
vn 0.0025 -0.9999 -0.0100
vn -0.0025 0.9999 0.0100
vn -0.0000 0.0000 1.0000
vn 0.0112 -0.9999 0.0041
vn -0.0112 0.9999 -0.0041
vn 0.9999 0.0156 0.0002
vn -0.0000 -0.0100 0.9999
vn 0.0156 -0.9998 -0.0100
vn 0.0000 0.0100 -0.9999
vn 0.0002 0.0000 -1.0000
vn 0.0156 -0.9999 0.0000
vn -0.0156 0.9999 -0.0000
vn -0.0002 -0.0000 1.0000
vn -0.0156 0.9998 0.0100
usemtl Material
s off
f 5/1/1 7/2/1 8/3/1 6/4/1
f 8/5/2 7/2/2 4/6/2 1/7/2
f 5/8/3 6/9/3 2/10/3 3/11/3
f 6/12/4 8/13/4 1/14/4 2/15/4
f 7/16/5 5/17/5 3/18/5 4/19/5
f 1/14/6 4/19/6 3/11/6 2/15/6
f 13/20/1 15/21/1 16/22/1 14/23/1
f 16/24/2 15/21/2 12/25/2 9/26/2
f 13/27/3 14/28/3 10/29/3 11/30/3
f 14/31/4 16/32/4 9/33/4 10/34/4
f 9/33/6 12/35/6 11/30/6 10/34/6
f 21/36/7 23/37/7 24/38/7 22/39/7
f 24/40/8 23/37/8 20/41/8 17/42/8
f 21/43/9 22/44/9 18/45/9 19/46/9
f 22/47/4 24/48/4 17/49/4 18/50/4
f 17/49/10 20/51/10 19/46/10 18/50/10
f 29/52/11 31/53/11 32/54/11 30/55/11
f 32/56/12 31/53/12 28/57/12 25/58/12
f 29/59/13 30/60/13 26/61/13 27/62/13
f 30/63/14 32/64/14 25/65/14 26/66/14
f 27/62/11 26/61/11 66/67/11 65/68/11
f 37/69/7 39/70/7 40/71/7 38/72/7
f 40/73/15 39/70/15 36/74/15 33/75/15
f 37/76/16 38/77/16 34/78/16 35/79/16
f 38/80/4 40/81/4 33/82/4 34/83/4
f 33/82/10 36/84/10 35/79/10 34/83/10
f 45/85/7 47/86/7 48/87/7 46/88/7
f 48/89/8 47/86/8 44/90/8 41/91/8
f 45/92/9 46/93/9 42/94/9 43/95/9
f 46/96/4 48/97/4 41/98/4 42/99/4
f 41/98/10 44/100/10 43/95/10 42/99/10
f 49/101/17 50/102/17 51/103/17 52/104/17
f 26/66/11 25/65/11 62/105/11 61/106/11
f 28/107/11 27/108/11 57/109/11 58/110/11
f 49/111/18 25/112/18 53/113/18 55/114/18
f 53/115/19 54/116/19 56/117/19 55/118/19
f 25/58/11 28/57/11 54/116/11 53/115/11
f 50/119/17 49/111/17 55/114/17 56/120/17
f 28/121/20 50/119/20 56/120/20 54/122/20
f 58/123/21 57/124/21 59/125/21 60/126/21
f 51/127/17 50/119/17 60/128/17 59/129/17
f 50/119/22 28/121/22 58/130/22 60/128/22
f 27/62/23 51/103/23 59/131/23 57/132/23
f 61/106/24 62/105/24 64/133/24 63/134/24
f 25/112/22 49/111/22 64/135/22 62/136/22
f 52/137/23 26/138/23 61/139/23 63/140/23
f 49/111/17 52/137/17 63/140/17 64/135/17
f 65/68/25 66/67/25 68/141/25 67/142/25
f 52/137/17 51/127/17 67/143/17 68/144/17
f 26/138/18 52/137/18 68/144/18 66/145/18
f 51/103/20 27/62/20 65/68/20 67/142/20
